# xmcd
#
# Track frame offsets:
#	150
#	17922
#	31732
#	45299
#	69187
#	81148
#	97305
#	118151
#	135842
#	151227
#	172423
#	192262
#	207132
#	237109
#	256756
#	276792
#
# Disc length: 4064 seconds
#
# Revision: 1
# Processed by: cddbd v1.4PL0 Copyright (c) Steve Scherf et al.
# Submitted via: audiograbber 1.81.02
#
DISCID=cf0fde10
DTITLE=Gilbert Bécaud - Olimpia 91
DYEAR=1900
DGENRE=
TTITLE0=Je partirai
TTITLE1=Et maintenant
TTITLE2=Il y a des moments si merveilleux
TTITLE3=Charlie t'ira pas au paradis
TTITLE4=Les tantes Jeannes
TTITLE5=L'aventure
TTITLE6=Le petit oiseau de toutes les couleurs
TTITLE7=C'est en septembre
TTITLE8=J' t'appartiens
TTITLE9=La solitude ca n'existe pas
TTITLE10=L'indifférence
TTITLE11=Je reviens te chercher
TTITLE12=L'indien
TTITLE13=L'important c'est la rose
TTITLE14=Nathalie
TTITLE15=Quand il est mort le poête
EXTD=
EXTT0=
EXTT1=
EXTT2=
EXTT3=
EXTT4=
EXTT5=
EXTT6=
EXTT7=
EXTT8=
EXTT9=
EXTT10=
EXTT11=
EXTT12=
EXTT13=
EXTT14=
EXTT15=
PLAYORDER=
